<svg width="8" height="16" viewBox="0 0 8 16" fill="none" xmlns="http://www.w3.org/2000/svg">
<path d="M5.2415 0.628227C5.09713 0.642663 4.7651 0.717731 4.56011 0.78125C3.62753 1.06709 2.92305 1.77446 2.617 2.73013C2.45243 3.24694 2.43511 3.42595 2.42067 4.7714L2.40624 6.00713H1.2831H0.159973V7.33526V8.66338H1.28599H2.41201V12.027V15.3906H3.78344H5.15488V12.027V8.66338H6.28956H7.42135L7.58881 7.35547C7.6812 6.63944 7.75627 6.04178 7.75338 6.02734C7.75338 6.01579 7.16728 6.00713 6.45124 6.00713H5.1491L5.16065 4.97351C5.1722 3.99185 5.17509 3.9341 5.23861 3.74066C5.29058 3.57897 5.33677 3.50968 5.45515 3.3913C5.72655 3.1199 6.02682 3.06216 7.21347 3.06216H7.84V1.88128V0.700408L7.67543 0.683084C7.08932 0.619565 5.63416 0.584918 5.2415 0.628227Z" fill="url(#paint0_linear_1489_97)"/>
<defs>
<linearGradient id="paint0_linear_1489_97" x1="0.159973" y1="20.1419" x2="10.1067" y2="20.0561" gradientUnits="userSpaceOnUse">
<stop stop-color="#AF802A"/>
<stop offset="1" stop-color="#DFC464"/>
</linearGradient>
</defs>
</svg>
