<svg width="18" height="16" viewBox="0 0 18 16" fill="none" xmlns="http://www.w3.org/2000/svg">
<path d="M8.74486 4.584L8.78316 5.21549L8.14489 5.13816C5.82158 4.84175 3.79188 3.83652 2.06855 2.14826L1.22603 1.31058L1.00902 1.92918C0.549466 3.30814 0.843071 4.76442 1.80048 5.74387C2.31109 6.28515 2.1962 6.36247 1.31539 6.04028C1.00902 5.93718 0.740947 5.85986 0.715417 5.89852C0.626059 5.98873 0.932429 7.1615 1.17497 7.62544C1.50687 8.26982 2.18344 8.90131 2.92383 9.27504L3.54934 9.57146L2.80894 9.58434C2.09408 9.58434 2.06855 9.59723 2.14514 9.86787C2.40045 10.7056 3.40892 11.5948 4.53227 11.9814L5.32373 12.2521L4.6344 12.6645C3.61317 13.2573 2.41322 13.5924 1.21327 13.6181C0.638824 13.631 0.166504 13.6826 0.166504 13.7212C0.166504 13.8501 1.72388 14.5718 2.63023 14.8553C5.34926 15.693 8.57891 15.3322 11.0043 13.9017C12.7277 12.8835 14.451 10.8602 15.2552 8.90131C15.6892 7.85742 16.1233 5.95007 16.1233 5.03506C16.1233 4.44224 16.1616 4.36491 16.8764 3.6561C17.2977 3.2437 17.6934 2.79264 17.77 2.66376C17.8977 2.4189 17.8849 2.4189 17.2339 2.63799C16.1488 3.02461 15.9956 2.97306 16.5318 2.39312C16.9275 1.98073 17.3998 1.23325 17.3998 1.01416C17.3998 0.975501 17.2083 1.03994 16.9913 1.15593C16.7615 1.2848 16.2509 1.47811 15.868 1.5941L15.1786 1.81319L14.5531 1.3879C14.2085 1.15593 13.7234 0.898176 13.4681 0.820851C12.817 0.640426 11.8213 0.666201 11.2341 0.872401C9.63844 1.45234 8.62997 2.94729 8.74486 4.584Z" fill="url(#paint0_linear_1489_100)"/>
<defs>
<linearGradient id="paint0_linear_1489_100" x1="0.166504" y1="-3.99263" x2="23.0404" y2="-3.53324" gradientUnits="userSpaceOnUse">
<stop stop-color="#AF802A"/>
<stop offset="1" stop-color="#DFC464"/>
</linearGradient>
</defs>
</svg>
