<svg width="20" height="20" viewBox="0 0 20 20" fill="none" xmlns="http://www.w3.org/2000/svg">
<g clip-path="url(#clip0_1489_102)">
<path d="M8.33984 0.0233688C6.76172 0.124931 4.875 0.38665 4.28125 0.589775C2.72656 1.12103 1.16797 2.66009 0.609375 4.21868C0.441406 4.68353 0.242188 5.91009 0.0898438 7.42181C-0.0117188 8.41009 -0.0117188 11.5898 0.0898438 12.5781C0.242188 14.0898 0.441406 15.3163 0.609375 15.7812C1.08203 17.0976 2.34766 18.4921 3.67188 19.1601C4.36719 19.5117 5.27734 19.6913 7.46094 19.9101C8.32812 19.996 11.4609 20.0077 12.3242 19.9296C13.7031 19.8007 15.1875 19.5859 15.625 19.4492C16.0117 19.332 16.6953 18.9765 17.1094 18.6796C17.5859 18.3398 18.3477 17.582 18.6797 17.1093C19.2305 16.332 19.4688 15.7382 19.625 14.7851C19.9141 12.9921 19.9805 12.1015 19.9805 9.99993C19.9805 8.19134 19.9609 7.81243 19.8008 6.48431C19.5703 4.53899 19.3984 3.96087 18.793 3.06243C18.0273 1.92181 16.8789 0.996025 15.7422 0.593681C15.2812 0.433525 14.1484 0.253838 12.5781 0.0936813C12.0039 0.0350876 8.96094 -0.0156937 8.33984 0.0233688ZM13.5273 3.9179C14.2227 4.13274 14.7227 4.44915 15.2188 4.97259C15.8242 5.61712 16.1328 6.32024 16.2109 7.24603C16.2617 7.81634 16.2617 12.246 16.2109 12.7929C16.1641 13.332 16.0586 13.7109 15.8398 14.1601C15.418 15.0156 14.6641 15.6874 13.7617 16.0117C13.1602 16.2304 13.1562 16.2304 9.98047 16.2304C6.74609 16.2304 6.80859 16.2343 6.14453 15.9765C5.28906 15.6484 4.56641 14.9843 4.16016 14.1601C3.94141 13.7109 3.83594 13.332 3.78906 12.7929C3.73828 12.2382 3.73828 7.81634 3.78906 7.22259C3.86719 6.27337 4.24609 5.47649 4.92578 4.82024C5.46484 4.30462 6.01562 4.01165 6.76172 3.84759C6.96484 3.80462 7.57422 3.79681 10.0977 3.80071L13.1836 3.80853L13.5273 3.9179Z" fill="url(#paint0_linear_1489_102)"/>
<path d="M6.84376 5.07812C5.98048 5.30469 5.25782 6.03516 5.0586 6.87891C4.97266 7.25391 4.97266 12.75 5.06251 13.125C5.26563 13.9883 5.98438 14.7188 6.85548 14.9414C7.05079 14.9922 7.52735 15 10 15C12.8242 15 12.9219 14.9961 13.2031 14.918C13.6445 14.7969 13.9258 14.6289 14.2774 14.2773C14.6289 13.9297 14.8359 13.5703 14.9375 13.125C15.0274 12.7461 15.0313 7.24219 14.9414 6.89453C14.7305 6.0625 14.1016 5.38672 13.2813 5.10547C13.0274 5.01953 13.0117 5.01953 10.0781 5.01172C7.26954 5.00391 7.11329 5.00781 6.84376 5.07812ZM13.5859 6.08984C14.1719 6.39062 14.1641 7.16797 13.5781 7.46875C13.3594 7.57812 13.0313 7.55469 12.8242 7.41016C12.3281 7.06641 12.3984 6.31641 12.9492 6.07031C13.1211 5.99609 13.418 6.00391 13.5859 6.08984ZM10.7578 6.89453C11.7109 7.14844 12.4414 7.74219 12.8867 8.62109C13.1172 9.07812 13.1836 9.40625 13.1797 10.0391C13.1797 10.5664 13.1719 10.6289 13.0547 10.9766C12.7734 11.8281 12.1797 12.5078 11.3945 12.8906C10.0664 13.5312 8.41407 13.1641 7.52735 12.0352C5.98048 10.0664 7.04298 7.28125 9.50782 6.83594C9.78126 6.78906 10.4766 6.82031 10.7578 6.89453Z" fill="url(#paint1_linear_1489_102)"/>
<path d="M9.54297 8.06639C8.66797 8.2578 8.00781 9.08983 8.00781 9.99999C8.00781 10.543 8.20703 11.0234 8.58984 11.4101C8.99219 11.8125 9.42578 11.9883 10 11.9922C11.1133 11.9961 11.9922 11.1133 11.9922 9.99999C11.9922 9.07421 11.3359 8.25389 10.4414 8.06639C10.1172 7.99608 9.86328 7.99608 9.54297 8.06639Z" fill="url(#paint2_linear_1489_102)"/>
</g>
<defs>
<linearGradient id="paint0_linear_1489_102" x1="0.0136718" y1="26.4016" x2="25.8684" y2="25.9726" gradientUnits="userSpaceOnUse">
<stop stop-color="#AF802A"/>
<stop offset="1" stop-color="#DFC464"/>
</linearGradient>
<linearGradient id="paint1_linear_1489_102" x1="4.99463" y1="18.2114" x2="17.9593" y2="17.9958" gradientUnits="userSpaceOnUse">
<stop stop-color="#AF802A"/>
<stop offset="1" stop-color="#DFC464"/>
</linearGradient>
<linearGradient id="paint2_linear_1489_102" x1="8.00781" y1="13.271" x2="13.1671" y2="13.1852" gradientUnits="userSpaceOnUse">
<stop stop-color="#AF802A"/>
<stop offset="1" stop-color="#DFC464"/>
</linearGradient>
<clipPath id="clip0_1489_102">
<rect width="20" height="20" fill="white"/>
</clipPath>
</defs>
</svg>
