<svg width="14" height="16" viewBox="0 0 14 16" fill="none" xmlns="http://www.w3.org/2000/svg">
<path fill-rule="evenodd" clip-rule="evenodd" d="M4.02208 12.1635C4.3191 12.3202 4.64989 12.402 4.98573 12.4019C6.10432 12.4019 7.01747 11.5121 7.0587 10.4031L7.06282 0.5H9.53362C9.53385 0.710339 9.5534 0.920212 9.59202 1.12698H7.7829V1.12732H9.59202H10.254C10.2537 1.95614 10.5541 2.75693 11.0995 3.38099C11.0997 3.38126 11.1 3.38153 11.1002 3.38179C11.6566 3.74524 12.3069 3.9385 12.9715 3.93789V4.48818C13.2041 4.53799 13.4446 4.56452 13.6919 4.56452V7.03601C12.4583 7.03743 11.2556 6.65065 10.254 5.93047V10.9521C10.254 13.4597 8.21372 15.5 5.70581 15.5C5.08127 15.5002 4.46342 15.3713 3.89099 15.1215C3.31898 14.872 2.80465 14.507 2.38016 14.0495C2.37985 14.0493 2.37955 14.0491 2.37923 14.0489C1.20636 13.2254 0.4375 11.8635 0.4375 10.3251C0.4375 7.81723 2.47783 5.77656 4.98573 5.77656C5.19081 5.77754 5.39558 5.79246 5.59862 5.82122V6.40628C5.59862 6.40628 5.59863 6.40628 5.59862 6.40628L5.59862 8.34389C5.59862 8.34389 5.59862 8.34389 5.59862 8.34389L5.59862 6.40628C5.61289 6.406 5.62711 6.40551 5.64133 6.40502C5.66273 6.40427 5.68414 6.40353 5.70581 6.40353C5.91088 6.40451 6.11565 6.41943 6.3187 6.44819V8.97087C6.12494 8.91006 5.91984 8.87467 5.70581 8.87467C5.15507 8.87531 4.62707 9.0944 4.23767 9.48386C3.84826 9.87333 3.62926 10.4014 3.62872 10.9521C3.62875 11.3871 3.76623 11.811 4.02153 12.1632C4.02171 12.1633 4.02189 12.1634 4.02208 12.1635ZM6.67412 12.7889C7.31016 12.4515 7.75054 11.7924 7.77912 11.0298V11.0301C7.75054 11.7925 7.31016 12.4515 6.67412 12.7889ZM4.98592 8.2477C5.11308 8.24771 5.2372 8.26013 5.35777 8.28308C5.23533 8.25998 5.11086 8.24811 4.98592 8.2477ZM3.51771 8.85677C3.5177 8.85677 3.51771 8.85676 3.51771 8.85677V8.85677ZM1.45759 12.5749C1.66867 13.1249 1.98369 13.6238 2.37823 14.0478C1.97566 13.617 1.6648 13.1159 1.45759 12.5749ZM4.98574 14.873C4.98573 14.873 4.98574 14.873 4.98574 14.873V14.873ZM9.53363 10.3248V5.30315C9.53362 5.30315 9.53363 5.30315 9.53363 5.30315V10.3248Z" fill="url(#paint0_linear_1489_109)"/>
<defs>
<linearGradient id="paint0_linear_1489_109" x1="0.4375" y1="-4.32143" x2="17.6015" y2="-4.06971" gradientUnits="userSpaceOnUse">
<stop stop-color="#AF802A"/>
<stop offset="1" stop-color="#DFC464"/>
</linearGradient>
</defs>
</svg>
