<svg width="276" height="70" viewBox="0 0 276 70" fill="none" xmlns="http://www.w3.org/2000/svg">
<path fill-rule="evenodd" clip-rule="evenodd" d="M0 30.03C0 42.09 7.16001 52.52 17.45 57.27C18.07 57.56 18.7 57.83 19.34 58.07C22.65 59.34 26.25 60.03 30.01 60.03C33.23 60.03 36.33 59.52 39.25 58.57C40.74 58.09 42.19 57.49 43.57 56.78C42.66 55.62 41.81 54.52 41.06 53.56C41.01 53.49 40.96 53.43 40.91 53.36C39.58 51.66 38.61 50.39 38.3 49.97L35.49 46.23C34.7 45.2 33.93 44.18 33.15 43.16C32.94 42.89 32.74 42.62 32.53 42.34C32.33 42.07 32.12 41.8 31.91 41.52C31.28 40.7 30.66 39.87 30.02 39.03C29.98 39.09 29.94 39.14 29.9 39.2C28.52 41.05 23.95 47.2 19.32 53.44C19.25 53.41 19.18 53.38 19.12 53.34C14.82 51.29 11.17 48.07 8.59 44.08C5.97 40.03 4.44 35.2 4.44 30.01C4.44 15.78 15.92 4.21001 30.04 4.21001C44.16 4.21001 55.65 15.78 55.65 30.01C55.65 36.93 52.93 43.22 48.52 47.86C46.96 45.87 45.28 43.73 43.73 41.75C42.69 40.42 41.71 39.16 40.85 38.07C39.44 36.27 38.41 34.93 38.09 34.49C38.94 33.35 39.81 32.29 40.58 31.17C42.18 28.85 43.27 26.37 43.03 23.5C42.76 20.26 40.38 15.85 33.92 15.62C28.4 15.44 22.88 15.58 17.25 15.58V37C17.25 38.71 17.28 40.43 17.24 42.14C17.24 42.3 17.24 42.45 17.26 42.57H21.64C21.65 42.55 29.4 32.37 30.07 31.45C30.4 31.88 34.05 36.6 38.01 41.74C38.96 42.97 39.92 44.22 40.86 45.44C42.37 47.4 43.83 49.29 45.06 50.89L47.67 54.27C48.92 53.36 50.09 52.36 51.18 51.27C56.64 45.84 60.03 38.31 60.03 30.01C60.03 13.47 46.57 0 30.02 0C13.47 0 0 13.49 0 30.03ZM21.62 20.63C21.62 19.91 21.87 19.73 22.58 19.73C24.6 19.74 26.63 19.74 28.65 19.74C30.39 19.74 32.13 19.74 33.86 19.74C36.8 19.75 39.1 22.62 38.38 25.33C37.85 27.34 36.65 28.99 35.24 30.76C33.4 28.35 31.62 26.01 29.76 23.57C27.08 27.14 24.36 30.6 21.61 34.27C21.56 33.8 21.65 24.88 21.62 20.63ZM24.31 55.19C27.14 51.32 30 47.35 30.29 46.96C30.31 46.98 30.33 47.01 30.36 47.06C30.39 47.1 30.44 47.15 30.48 47.22C30.53 47.29 30.59 47.37 30.66 47.46C30.99 47.88 31.49 48.53 32.12 49.35C32.22 49.48 32.32 49.61 32.42 49.74C32.52 49.87 32.63 50.01 32.74 50.15C32.96 50.43 33.18 50.73 33.43 51.04C33.67 51.35 33.92 51.67 34.17 52C34.43 52.33 34.69 52.68 34.97 53.03C34.99 53.06 35.02 53.09 35.04 53.12C35.41 53.59 36.06 54.35 36.59 54.97C36.55 54.98 36.52 54.99 36.48 55C34.41 55.55 32.24 55.84 30.01 55.84C28.05 55.83 26.14 55.61 24.31 55.19Z" fill="url(#paint0_linear_1455_1074)"/>
<path fill-rule="evenodd" clip-rule="evenodd" d="M151.52 49.46H163.88V44.8H160.5V15.72H163.88V10.61H151.52V15.72H154.86V44.8H151.52V49.46Z" fill="url(#paint1_linear_1455_1074)"/>
<path fill-rule="evenodd" clip-rule="evenodd" d="M257.02 49.46H270.16V44.8H266.4V15.72H270.33V19.38H275.05V10.61H252.15V19.38H256.87V15.72H260.8V44.8H257.02V49.46Z" fill="url(#paint2_linear_1455_1074)"/>
<path fill-rule="evenodd" clip-rule="evenodd" d="M168.24 49.46H177.96C187.02 49.46 192.03 44.03 192.03 35.06V25.04C192.03 25.03 192.03 25.02 192.03 25C192.03 16.03 187.02 10.6 177.96 10.6H168.24V15.71H171.58V25.03V35.01V44.78H168.24V49.46ZM177.22 35.02V25.04V15.72H177.95C183.01 15.72 186.21 18.33 186.21 25C186.21 25.01 186.21 25.02 186.21 25.04V35.02C186.21 35.03 186.21 35.04 186.21 35.06C186.21 41.73 183.02 44.8 177.95 44.8H177.22V35.02Z" fill="url(#paint3_linear_1455_1074)"/>
<path fill-rule="evenodd" clip-rule="evenodd" d="M220.56 49.46H232.47V44.8H229V21.19L239.88 49.46H244.95V15.72H248.31V10.61H239.85V35.52L230.24 10.61H220.56V15.72H223.9V44.8H220.56V49.46Z" fill="url(#paint4_linear_1455_1074)"/>
<path fill-rule="evenodd" clip-rule="evenodd" d="M129.14 18.77C129.14 23.58 141.05 39.86 141.05 41.88C141.05 44.2 139.54 45.14 136.96 45.14C135.79 45.14 134.67 45.01 133.5 44.76V41.22H128.86V48.46C131.14 49.48 133.95 50.05 136.85 50.05C143.8 50.05 146.79 46.37 146.79 41.31C146.79 37.02 134.92 20.54 134.92 18.24C134.92 15.86 136.59 14.77 139.21 14.77C139.97 14.77 140.57 14.87 141.35 15.3V19.29H145.99V11.43C144.67 10.78 141.92 10.03 138.95 10.03C133.56 10.03 129.14 12.79 129.14 18.77Z" fill="url(#paint5_linear_1455_1074)"/>
<path fill-rule="evenodd" clip-rule="evenodd" d="M196.2 49.46H216.41V41.21H211.72V44.8H205.19V32.59H212.15V27.47H205.19V15.72H211.72V19.31H216.41V10.61H196.2V15.72H199.54V44.8H196.2V49.46Z" fill="url(#paint6_linear_1455_1074)"/>
<path fill-rule="evenodd" clip-rule="evenodd" d="M103.52 49.46H123.73V41.21H119.04V44.8H112.51V32.59H119.47V27.47H112.51V15.72H119.04V19.31H123.73V10.61H103.52V15.72H106.86V44.8H103.52V49.46Z" fill="url(#paint7_linear_1455_1074)"/>
<path fill-rule="evenodd" clip-rule="evenodd" d="M75.02 49.46H84V44.8H84.01V32.56H87.08L91.82 49.47H98.38V44.81H95.71L92.61 31.96C96.68 30.67 98.38 27.48 98.38 24.02V19.81V19.73V19.66V19.59V19.53V19.47V19.42V19.37V19.33V19.29V19.26V19.23V19.21V19.19V19.18C98.38 14.67 95.49 10.63 88.29 10.63H87.38H75.01V15.75H78.35V44.82H75.01V49.46H75.02ZM84.01 15.72H87.39H88.37C89.57 15.72 90.58 16 91.39 16.58C92.2 17.16 92.59 18.12 92.59 19.42C92.59 19.47 92.59 23.69 92.59 23.74C92.59 25.04 92.2 26 91.39 26.58C91.19 26.72 90.98 26.85 90.76 26.96C90.08 27.29 89.28 27.45 88.37 27.45H84.01V15.72Z" fill="url(#paint8_linear_1455_1074)"/>
<path d="M86.2601 69.42H85.0001L81.0601 64.74L84.7101 60.46H85.9201L82.1601 64.71L86.2601 69.42ZM81.0501 69.42H80.0901V60.46H81.0501V69.42ZM76.1401 69.42H74.8801L78.9801 64.71L75.2001 60.46H76.4101L80.0701 64.74L76.1401 69.42Z" fill="#808080"/>
<path d="M93.0001 60.47L89.7501 68.03C89.3501 68.96 88.7601 69.43 87.9901 69.43H87.2101V68.57H87.7801C88.0801 68.57 88.3201 68.5 88.5001 68.36C88.6801 68.22 88.8301 67.99 88.9701 67.67L89.3401 66.83L86.3801 60.46H87.4001L89.8201 65.76L92.0001 60.46H93.0001V60.47Z" fill="#808080"/>
<path d="M99.0399 64.42C99.3799 64.11 99.5499 63.67 99.5499 63.09C99.5499 62.51 99.3799 62.07 99.0399 61.77C98.6999 61.47 98.2399 61.32 97.6599 61.32H95.3599V64.88H97.6599C98.2399 64.88 98.6999 64.73 99.0399 64.42ZM100.51 63.1C100.51 63.9 100.25 64.54 99.7399 65.02C99.2199 65.5 98.5599 65.74 97.7499 65.74H95.3699V69.43H94.4099V60.47H97.7399C98.5599 60.47 99.2299 60.71 99.7399 61.19C100.25 61.67 100.51 62.31 100.51 63.1Z" fill="#808080"/>
<path d="M108.5 69.42H107.54V65.33H103.29V69.42H102.33V60.47H103.29V64.48H107.54V60.47H108.5V69.42Z" fill="#808080"/>
<path d="M115.32 66.57L113.66 61.84L111.97 66.57H115.32ZM117.33 69.42H116.31L115.59 67.39H111.68L110.96 69.42H109.94L113.24 60.46H114.05L117.33 69.42Z" fill="#808080"/>
<path d="M124.95 69.42H123.99V61.32H120.95V64.39C120.95 66.22 120.74 67.51 120.31 68.28C119.88 69.04 119.22 69.43 118.34 69.43H117.89V68.57H118.13C118.43 68.57 118.69 68.51 118.9 68.39C119.11 68.27 119.31 68.05 119.49 67.74C119.67 67.43 119.8 66.97 119.89 66.37C119.98 65.77 120.03 65.01 120.03 64.11V60.47H124.96L124.95 69.42Z" fill="#808080"/>
<path d="M147.99 69.42H147.03V62.62L144.58 68.01H143.76L141.27 62.62V69.42H140.31V60.47H141.27L144.19 66.82L147.03 60.47H147.99V69.42Z" fill="#808080"/>
<path d="M154.81 66.57L153.15 61.84L151.46 66.57H154.81ZM156.82 69.42H155.8L155.08 67.39H151.17L150.45 69.42H149.43L152.73 60.46H153.53L156.82 69.42Z" fill="#808080"/>
<path d="M164.09 66.17C164.09 66.7 164.03 67.13 163.92 67.48C163.81 67.82 163.61 68.16 163.32 68.47C162.69 69.16 161.9 69.5 160.93 69.5C160.02 69.5 159.28 69.21 158.69 68.62C158.3 68.23 158.05 67.79 157.95 67.32C157.85 66.85 157.8 66.06 157.8 64.94C157.8 63.82 157.85 63.03 157.95 62.56C158.05 62.09 158.3 61.66 158.69 61.26C159.28 60.67 160.02 60.38 160.93 60.38C161.76 60.38 162.46 60.63 163.03 61.13C163.59 61.63 163.94 62.27 164.07 63.06H163.11C162.99 62.49 162.73 62.04 162.35 61.72C161.97 61.4 161.5 61.24 160.93 61.24C160.3 61.24 159.78 61.45 159.38 61.87C159.11 62.15 158.94 62.48 158.86 62.88C158.78 63.28 158.75 63.96 158.75 64.94C158.75 65.91 158.79 66.6 158.86 67C158.93 67.4 159.11 67.74 159.38 68.01C159.78 68.43 160.3 68.64 160.93 68.64C161.64 68.64 162.21 68.38 162.63 67.87C162.97 67.45 163.13 66.91 163.13 66.25V65.56H160.93V64.74H164.09V66.17Z" fill="#808080"/>
<path d="M170.42 66.57L168.76 61.84L167.07 66.57H170.42ZM172.43 69.42H171.41L170.69 67.39H166.78L166.06 69.42H165.04L168.34 60.46H169.14L172.43 69.42Z" fill="#808080"/>
<path d="M178.86 69.42H173.3V68.52L177.78 61.32H173.47V60.47H178.86V61.27L174.34 68.57H178.86V69.42Z" fill="#808080"/>
<path d="M181.83 69.42H180.87V60.47H181.83V69.42Z" fill="#808080"/>
<path d="M191.04 69.42H190.13L185.38 62.24V69.42H184.42V60.47H185.32L190.08 67.62V60.47H191.04V69.42Z" fill="#808080"/>
<path d="M199.19 69.42H193.63V60.47H199.19V61.32H194.58V64.48H198.51V65.33H194.58V68.57H199.19V69.42Z" fill="#808080"/>
<path d="M133.58 65.83H131.65V63.9H133.58V65.83Z" fill="#808080"/>
<defs>
<linearGradient id="paint0_linear_1455_1074" x1="8.13234" y1="50.9492" x2="50.4774" y2="8.60441" gradientUnits="userSpaceOnUse">
<stop stop-color="#AC802A"/>
<stop offset="0.502" stop-color="#AC802A"/>
<stop offset="1" stop-color="#DCC164"/>
</linearGradient>
<linearGradient id="paint1_linear_1455_1074" x1="-3.69198" y1="190.256" x2="394.348" y2="-207.784" gradientUnits="userSpaceOnUse">
<stop stop-color="#AC802A"/>
<stop offset="0.502" stop-color="#AC802A"/>
<stop offset="1" stop-color="#DCC164"/>
</linearGradient>
<linearGradient id="paint2_linear_1455_1074" x1="35.0548" y1="254.791" x2="273.65" y2="16.1951" gradientUnits="userSpaceOnUse">
<stop stop-color="#AC802A"/>
<stop offset="0.502" stop-color="#AC802A"/>
<stop offset="1" stop-color="#DCC164"/>
</linearGradient>
<linearGradient id="paint3_linear_1455_1074" x1="59.6409" y1="145.587" x2="282.483" y2="-77.2547" gradientUnits="userSpaceOnUse">
<stop stop-color="#AC802A"/>
<stop offset="0.502" stop-color="#AC802A"/>
<stop offset="1" stop-color="#DCC164"/>
</linearGradient>
<linearGradient id="paint4_linear_1455_1074" x1="47.6395" y1="213.856" x2="278.269" y2="-16.7737" gradientUnits="userSpaceOnUse">
<stop stop-color="#AC802A"/>
<stop offset="0.502" stop-color="#AC802A"/>
<stop offset="1" stop-color="#DCC164"/>
</linearGradient>
<linearGradient id="paint5_linear_1455_1074" x1="49.8364" y1="117.085" x2="340.084" y2="-173.163" gradientUnits="userSpaceOnUse">
<stop stop-color="#AC802A"/>
<stop offset="0.502" stop-color="#AC802A"/>
<stop offset="1" stop-color="#DCC164"/>
</linearGradient>
<linearGradient id="paint6_linear_1455_1074" x1="21.1683" y1="213.924" x2="302.015" y2="-66.9236" gradientUnits="userSpaceOnUse">
<stop stop-color="#AC802A"/>
<stop offset="0.502" stop-color="#AC802A"/>
<stop offset="1" stop-color="#DCC164"/>
</linearGradient>
<linearGradient id="paint7_linear_1455_1074" x1="63.8558" y1="78.7058" x2="344.703" y2="-202.141" gradientUnits="userSpaceOnUse">
<stop stop-color="#AC802A"/>
<stop offset="0.502" stop-color="#AC802A"/>
<stop offset="1" stop-color="#DCC164"/>
</linearGradient>
<linearGradient id="paint8_linear_1455_1074" x1="76.5808" y1="39.1015" x2="312.168" y2="-196.486" gradientUnits="userSpaceOnUse">
<stop stop-color="#AC802A"/>
<stop offset="0.502" stop-color="#AC802A"/>
<stop offset="1" stop-color="#DCC164"/>
</linearGradient>
</defs>
</svg>
