<svg width="24" height="24" viewBox="0 0 24 24" fill="none" xmlns="http://www.w3.org/2000/svg">
<path fill-rule="evenodd" clip-rule="evenodd" d="M10.9286 3.42857C6.78642 3.42857 3.42857 6.78642 3.42857 10.9286C3.42857 15.0707 6.78642 18.4285 10.9286 18.4285C12.9978 18.4285 14.87 17.5914 16.2278 16.2357C17.5885 14.8771 18.4285 13.0014 18.4285 10.9286C18.4285 6.78642 15.0707 3.42857 10.9286 3.42857ZM2 10.9286C2 5.99714 5.99714 2 10.9286 2C15.86 2 19.8571 5.99714 19.8571 10.9286C19.8571 13.1386 19.0535 15.1621 17.7235 16.7207L21.79 20.78C22.0692 21.0585 22.07 21.5114 21.7914 21.79C21.5128 22.0692 21.06 22.07 20.7814 21.7914L16.7128 17.7307C15.155 19.0564 13.135 19.8571 10.9286 19.8571C5.99714 19.8571 2 15.86 2 10.9286Z" fill="black"/>
</svg>
